<?xml version="1.0" ?><svg id="_x33_0" style="enable-background:new 0 0 64 64;" version="1.1" viewBox="0 0 64 64" xml:space="preserve" xmlns="http://www.w3.org/2000/svg" xmlns:xlink="http://www.w3.org/1999/xlink"><g><g><g><path d="M21,34h22c0.552,0,1,0.448,1,1v0c0,6.627-5.373,12-12,12h0c-6.627,0-12-5.373-12-12v0     C20,34.448,20.448,34,21,34z" style="fill:#FFEAA7;"/></g><g><path d="M46.17,22.6c-0.53-0.73-1.28-1.3-2.18-1.6l-1.79-0.6c-0.71-0.24-1.2-0.91-1.2-1.67     c0-0.47,0.19-0.92,0.52-1.25l0.86-0.86c0.4-0.4,0.62-0.93,0.62-1.49c0-0.71-0.35-1.36-0.94-1.76L40,12c0,0.9-0.29,1.74-0.79,2.43     s-1.21,1.23-2.06,1.52L37,16c-1.502,0.278-1.985,0.078-3-1l1.02-1.02C35.65,13.35,36,12.5,36,11.61c0-0.77-0.26-1.48-0.71-2.05     c-0.45-0.58-1.09-1-1.83-1.19L32,8l-1-2c0-0.87-0.31-1.68-0.83-2.32c-0.52-0.64-1.25-1.1-2.11-1.27L26,2l0.41,0.82     C26.8,3.6,27,4.45,27,5.31c0,1.1-0.33,2.18-0.94,3.09L25.7,8.95c-0.46,0.68-0.7,1.49-0.7,2.32c0,1.11,0.44,2.17,1.23,2.96     l0.03,0.03c0.48,0.48,0.74,1.11,0.74,1.78c0,1.15-0.78,2.16-1.9,2.44l-1.92,0.48c-0.09-0.16-0.19-0.32-0.29-0.48L22,17.14     l-0.28,0.84c-0.47,1.41-1.36,2.64-2.55,3.53l-0.28,0.21c-1.19,0.9-1.89,2.3-1.89,3.79c0,1.64,0.85,3.16,2.24,4.02L20,30     c0,0,4,2,12,2c9,0,12-2,12-2l1.71-1.71c0.83-0.83,1.29-1.95,1.29-3.11C47,24.23,46.7,23.34,46.17,22.6z" style="fill:#FF826E;"/></g><g><path d="M39.76,59.83C39.92,60.19,40,60.58,40,61c0,0.55-0.45,1-1,1H25c-0.55,0-1-0.45-1-1     c0-0.42,0.08-0.81,0.24-1.17c0.15-0.36,0.37-0.68,0.64-0.95C25.42,58.34,26.17,58,27,58h1h8h1C38.24,58,39.31,58.75,39.76,59.83z     " style="fill:#FFEAA7;"/></g><g><path d="M36,46.32V58h-8V46.32c1.25,0.44,2.6,0.68,4,0.68C33.4,47,34.75,46.76,36,46.32z" style="fill:#FCD770;"/></g><g><path d="M43,34c0.55,0,1,0.45,1,1c0,0.83-0.08,1.64-0.24,2.42c-0.04,0.2-0.09,0.39-0.14,0.58H20.38     c-0.05-0.19-0.1-0.38-0.14-0.58C20.08,36.64,20,35.83,20,35c0-0.55,0.45-1,1-1h3h16H43z" style="fill:#FCD770;"/></g><g><path d="M24.34,30.25C24.52,30.09,24.75,30,25,30h3h7h4c0.55,0,1,0.45,1,1v3H24v-3     C24,30.7,24.13,30.43,24.34,30.25z" style="fill:#CCD1D9;"/></g><g><path d="M32.8,18.96L36,22l0.73,2.2c0.18,0.53,0.27,1.09,0.27,1.64c0,1.38-0.55,2.71-1.52,3.68L35,30h-7     l-0.77-0.77C26.44,28.44,26,27.38,26,26.27c0-0.83,0.24-1.64,0.7-2.32L28,22l2,2l1-3l1.29-1.29     C32.51,19.49,32.68,19.24,32.8,18.96z" style="fill:#FC6E51;"/></g></g><g><path d="M18.715,30.381l0.76,0.47l1.051-1.701l-0.759-0.469C18.66,27.995,18,26.81,18,25.508c0-1.167,0.558-2.283,1.491-2.983    l0.282-0.212c1.057-0.792,1.897-1.809,2.472-2.98C22.74,20.187,23,21.151,23,22.144h2c0-0.861-0.16-1.702-0.44-2.503l0.782-0.195    C26.907,19.054,28,17.653,28,16.04c0-0.938-0.365-1.819-1.067-2.522C26.331,12.917,26,12.118,26,11.267    c0-0.631,0.185-1.242,0.535-1.767l0.362-0.543C27.619,7.875,28,6.615,28,5.314c0-0.661-0.102-1.323-0.298-1.955l0.16,0.032    C29.101,3.64,30,4.737,30,6h2c0-2.213-1.575-4.135-3.745-4.569l-4.063-0.813l1.326,2.653C25.833,3.902,26,4.609,26,5.314    c0,0.904-0.265,1.781-0.767,2.533l-0.362,0.543C24.302,9.245,24,10.239,24,11.267c0,1.385,0.539,2.687,1.558,3.705    C25.843,15.257,26,15.636,26,16.04c0,0.694-0.471,1.297-1.144,1.465l-1.211,0.303l-1.947-2.919l-0.926,2.773    c-0.407,1.223-1.167,2.278-2.198,3.051l-0.283,0.212C16.856,22.001,16,23.715,16,25.508C16,27.507,17.015,29.328,18.715,30.381z"/><path d="M36.685,15.051l0.631,1.898l0.155-0.052c1.557-0.519,2.736-1.726,3.249-3.216l0.788,0.525    C41.815,14.412,42,14.756,42,15.127c0,0.296-0.115,0.574-0.324,0.783l-0.866,0.866C40.288,17.298,40,17.992,40,18.73    c0,1.19,0.759,2.243,1.889,2.621l1.782,0.594C45.064,22.409,46,23.707,46,25.175c0,0.91-0.354,1.765-0.997,2.408l-1.71,1.709    l1.414,1.414l1.71-1.709C47.438,27.977,48,26.62,48,25.175c0-2.331-1.485-4.391-3.696-5.128l-1.782-0.594    C42.21,19.349,42,19.059,42,18.73c0-0.204,0.079-0.395,0.224-0.539l0.866-0.866c0.587-0.586,0.91-1.367,0.91-2.197    c0-1.042-0.518-2.008-1.384-2.585L39,10.131V12c0,1.363-0.869,2.569-2.161,3L36.685,15.051z"/><path d="M33.223,9.336C34.269,9.598,35,10.534,35,11.613c0,0.627-0.244,1.217-0.688,1.66l-1.02,1.02l1.414,1.414l1.02-1.02    C36.548,13.866,37,12.774,37,11.613c0-1.999-1.354-3.732-3.293-4.217L32.242,7.03l-0.484,1.94L33.223,9.336z"/><path d="M30.293,20.293l1.414,1.414L33,20.415c0.645-0.645,1-1.502,1-2.415s-0.355-1.77-1-2.415l-0.393-0.392    C32.222,14.808,32,14.272,32,13.726c0-0.32,0.076-0.642,0.219-0.928l0.676-1.351l-1.789-0.895l-0.677,1.352    C30.148,12.468,30,13.098,30,13.726c0,1.072,0.435,2.123,1.193,2.882L31.586,17C31.854,17.267,32,17.622,32,18    s-0.146,0.733-0.414,1L30.293,20.293z"/><path d="M51,31c-2.535,0-4.793,1.189-6.26,3.034C44.398,33.421,43.75,33,43,33h-2v-2c0-1.103-0.897-2-2-2h-1.868    C37.694,28.054,38,26.974,38,25.844c0-0.668-0.106-1.328-0.318-1.962l-0.733-2.199l-1.896,0.633l0.732,2.198    C35.928,24.944,36,25.391,36,25.844c0,1.124-0.438,2.179-1.231,2.973L34.586,29h-6.172l-0.482-0.482    C27.331,27.917,27,27.118,27,26.267c0-0.631,0.185-1.242,0.535-1.767l0.62-0.931l1.138,1.137l1.414-1.414l-2.862-2.863    l-1.974,2.96C25.302,24.245,25,25.239,25,26.267c0,0.984,0.284,1.919,0.792,2.733H25c-1.103,0-2,0.897-2,2v2h-2    c-0.75,0-1.398,0.421-1.74,1.034C17.793,32.189,15.535,31,13,31c-4.411,0-8,3.589-8,8c0,4.582,3.104,8.558,7.549,9.667    l6.146,1.537c0.722,0.181,1.405,0.45,2.067,0.759c-0.344,0.239-0.711,0.449-1.114,0.6l-0.255,0.096C16.766,52.645,15,55.193,15,58    c0,2.757,2.243,5,5,5c1.215,0,2.315-0.453,3.183-1.176C23.498,62.516,24.192,63,25,63h14c0.808,0,1.502-0.484,1.817-1.176    C41.685,62.547,42.785,63,44,63c2.757,0,5-2.243,5-5c0-2.807-1.766-5.355-4.394-6.341l-0.255-0.096    c-0.403-0.151-0.77-0.361-1.114-0.6c0.662-0.309,1.345-0.579,2.067-0.759l6.146-1.537C55.896,47.558,59,43.582,59,39    C59,34.589,55.411,31,51,31z M25,45.937c0.633,0.407,1.299,0.767,2,1.06v6.639c-0.855-1.211-1.901-2.275-3.095-3.149    C24.594,49.376,25,48.085,25,46.728V45.937z M29,47.637C29.965,47.866,30.966,48,32,48s2.035-0.134,3-0.363V57h-6V47.637z     M37,46.997c0.701-0.293,1.367-0.654,2-1.06v0.791c0,1.357,0.406,2.648,1.095,3.76c-1.194,0.874-2.24,1.938-3.095,3.149V46.997z     M32,46c-4.653,0-8.631-2.909-10.237-7h20.473C40.631,43.091,36.653,46,32,46z M25,31h14v2H25V31z M21,35h22    c0,0.684-0.071,1.35-0.191,2H21.19c-0.12-0.65-0.191-1.316-0.192-2H21z M13.033,46.728C9.481,45.84,7,42.662,7,39    c0-3.309,2.691-6,6-6s6,2.691,6,6c0,1.654-1.346,3-3,3s-3-1.346-3-3c0-0.552,0.448-1,1-1s1,0.448,1,1v1h2v-1c0-1.654-1.346-3-3-3    s-3,1.346-3,3c0,2.757,2.243,5,5,5c2.007,0,3.729-1.195,4.525-2.905c0.649,1.217,1.489,2.315,2.475,3.264v2.369    c0,0.977-0.291,1.905-0.786,2.706c-0.952-0.503-1.967-0.902-3.034-1.168L13.033,46.728z M20,61c-1.654,0-3-1.346-3-3    c0-1.979,1.244-3.773,3.097-4.468l0.255-0.096c0.855-0.321,1.609-0.812,2.264-1.405c1.755,1.256,3.143,2.985,3.98,5.009    c-0.595,0.061-1.149,0.245-1.638,0.538C24.751,56.125,23.51,55,22,55c-1.654,0-3,1.346-3,3v1h2v-1c0-0.552,0.448-1,1-1    s1,0.448,1,1C23,59.654,21.654,61,20,61z M25,61c0-1.103,0.897-2,2-2h10c1.103,0,2,0.897,2.002,2H25z M43.648,53.437l0.255,0.096    C45.756,54.227,47,56.021,47,58c0,1.654-1.346,3-3,3s-3-1.346-3-3c0-0.552,0.448-1,1-1s1,0.448,1,1v1h2v-1c0-1.654-1.346-3-3-3    c-1.51,0-2.751,1.125-2.957,2.579c-0.489-0.293-1.043-0.477-1.638-0.538c0.837-2.024,2.225-3.753,3.98-5.009    C42.039,52.625,42.794,53.116,43.648,53.437z M50.967,46.728l-6.146,1.537c-1.067,0.267-2.082,0.666-3.034,1.168    C41.291,48.633,41,47.704,41,46.728v-2.369c0.986-0.949,1.826-2.047,2.475-3.264C44.271,42.805,45.993,44,48,44    c2.757,0,5-2.243,5-5c0-1.654-1.346-3-3-3s-3,1.346-3,3v1h2v-1c0-0.552,0.448-1,1-1s1,0.448,1,1c0,1.654-1.346,3-3,3s-3-1.346-3-3    c0-3.309,2.691-6,6-6s6,2.691,6,6C57,42.662,54.519,45.84,50.967,46.728z"/></g></g></svg>